# xmcd CD database file
#
# Track frame offsets:
#	150
#	12257
#	26216
#	36793
#	50924
#	62483
#	76992
#	89364
#	101048
#	113864
#	123718
#	136333
#	151185
#	164811
#	175167
#	186308
#
# Disc length: 2647 seconds
#
# Revision: 0
# Processed by: cddbd v1.4b42PL1 Copyright (c) Steve Scherf et al.
# Submitted via: Feurio! 1.62 - http://www.feurio.com
#
DISCID=de0a5510
DTITLE=Tom Astor - Das Doppelabum CD1
DYEAR=1900
DGENRE=
TTITLE0=Hallo guten Morgen Deutschland
TTITLE1=International Airport (Frankur
TTITLE2=Wenn ein zartes Wesen mit Gefü
TTITLE3=Die fünfziger Jahre sterben
TTITLE4=Blue Jeans, Rock´n´ Roll und E
TTITLE5=Susie, Susie
TTITLE6=Du bist mein beste Freund
TTITLE7=Ein unbekannter Stuntman
TTITLE8=Wer hat ein Herz, das nie bric
TTITLE9=Sicht weg, Gas weg
TTITLE10=Junge zieh die Bremse an
TTITLE11=Wer sich wieder schlecht bei K
TTITLE12=Der kleine Trucker
TTITLE13=Die Liebe hat es schwer im dic
TTITLE14=Panamerican Highway
TTITLE15=Ich wünsch Dir Hals-und Beinbr
EXTD=
EXTT0=
EXTT1=
EXTT2=
EXTT3=
EXTT4=
EXTT5=
EXTT6=
EXTT7=
EXTT8=
EXTT9=
EXTT10=
EXTT11=
EXTT12=
EXTT13=
EXTT14=
EXTT15=
PLAYORDER=
